<svg width="200" height="79" viewBox="0 0 200 79" fill="none" xmlns="http://www.w3.org/2000/svg">
<path d="M68.754 35.3431L199.48 35.9438L197.786 78.4892L42.6715 75.0258L40.3779 49.874L40.3264 49.3088L39.7722 49.4312L16.4944 54.57L0.688066 19.4739L61.5659 0.602432L75.667 28.3511L68.4336 34.4611L67.3969 35.3368L68.754 35.3431Z" stroke="#FF8013"/>
<path d="M19.8732 44.894L14.9382 23.0501L22.5408 21.3079L23.2077 24.3902C24.4747 21.643 26.4087 19.9008 28.9429 19.3648C31.277 18.8287 33.211 19.1637 34.8782 20.3028C36.5454 21.4419 37.6125 23.2511 38.146 25.7303L41.347 40.0026L33.7445 41.7447L31.0769 29.9517C30.8102 28.8126 30.3434 27.9415 29.6765 27.4055C29.0096 26.8694 28.1426 26.7354 27.209 26.9364C26.2753 27.1374 25.5418 27.6735 25.0749 28.4106C24.6081 29.2146 24.5414 30.1527 24.8082 31.2918L27.4757 43.0849L19.8732 44.894Z" fill="white"/>
<path d="M56.4856 37.0543C53.0844 37.8583 49.9501 37.3893 47.2158 35.6471C44.4149 33.972 42.681 31.4928 42.0141 28.3435C41.2805 25.1942 41.814 22.246 43.6146 19.4987C45.3485 16.7515 48.0161 15.0093 51.4172 14.2052C54.8184 13.4012 57.9527 13.8702 60.687 15.6124C63.4879 17.2875 65.2218 19.7667 65.9554 22.916C66.689 26.0653 66.1555 29.0136 64.3549 31.7608C62.5543 34.508 59.9534 36.3172 56.4856 37.0543ZM55.1518 30.5547C56.4856 30.2197 57.4859 29.5496 58.1528 28.4105C58.753 27.2714 58.9531 25.9983 58.6196 24.5912C58.2862 23.251 57.6193 22.179 56.4856 21.4419C55.3519 20.7048 54.1515 20.4368 52.8844 20.7718C51.5506 21.1069 50.5503 21.7769 49.8834 22.916C49.2832 24.0551 49.0831 25.3282 49.4166 26.7354C49.75 28.0755 50.4169 29.1476 51.5506 29.8846C52.6176 30.6217 53.818 30.8897 55.1518 30.5547Z" fill="white"/>
<path d="M51.417 67.609L51.8838 45.229L59.6864 45.363L59.6197 48.4453C61.487 46.1001 63.7544 44.961 66.2886 45.028C69.2896 45.095 71.4237 46.3681 72.6241 48.7803C74.7581 46.3681 77.2923 45.229 80.1599 45.296C82.5607 45.363 84.428 46.1001 85.6951 47.5742C87.0289 49.0483 87.6291 51.0585 87.5624 53.6718L87.3623 68.3461L79.5597 68.212L79.8265 56.084C79.8265 54.8779 79.6264 54.0068 79.0262 53.3367C78.4927 52.6667 77.7591 52.3316 76.8255 52.3316C75.8918 52.3316 75.0916 52.5997 74.4914 53.2697C73.8912 53.8728 73.5577 54.8109 73.5577 56.017L73.291 68.145L65.4884 68.011L65.7551 55.8829C65.7551 54.6768 65.555 53.8058 65.0215 53.1357C64.488 52.4656 63.7544 52.1306 62.8208 52.1306C61.8871 52.1306 61.0869 52.3986 60.4867 53.0687C59.8865 53.6718 59.6197 54.6098 59.553 55.8159L59.2863 67.944L51.417 67.609Z" fill="white"/>
<path d="M97.7659 69.0831C95.5651 69.0161 93.7645 68.4131 92.4308 67.14C91.0303 65.8668 90.3634 64.1247 90.4301 61.9805C90.4968 59.7023 91.297 58.0272 92.8976 56.8211C94.4981 55.6149 96.6321 55.0789 99.2997 55.1459C101.234 55.2129 103.034 55.4809 104.635 56.151V55.749C104.702 53.3367 103.234 52.0636 100.233 51.9966C98.2327 51.9296 96.1653 52.3317 94.098 53.1357L92.6308 47.5742C95.4317 46.5021 98.4994 45.9661 101.701 46.0331C105.568 46.1001 108.369 47.1052 110.103 48.9143C111.637 50.5225 112.437 52.9347 112.371 56.084L112.104 68.9491L104.368 68.8151L104.435 66.4699C102.634 68.2121 100.433 69.1501 97.7659 69.0831ZM100.633 64.1917C101.767 64.1917 102.701 63.9237 103.434 63.2536C104.168 62.5836 104.568 61.7125 104.568 60.6404V59.6353C103.701 59.2333 102.634 59.0322 101.567 58.9652C100.433 58.9652 99.5665 59.1663 98.8996 59.7023C98.2327 60.1713 97.8992 60.9084 97.8992 61.7795C97.8992 62.5166 98.0993 63.1196 98.6328 63.5886C99.1663 63.9907 99.8332 64.1917 100.633 64.1917Z" fill="white"/>
<path d="M124.908 69.6192C119.907 69.4852 117.439 67.006 117.573 62.0475L117.773 52.9347L115.172 52.8677L115.305 46.5691L117.906 46.6361L118.039 40.9406L125.842 41.0747L125.709 46.7702L130.91 46.9042L130.777 53.2027L125.575 53.0687L125.375 60.7074C125.375 62.1815 126.042 62.9856 127.443 62.9856C128.376 62.9856 129.377 62.7846 130.444 62.3155L130.31 68.4801C128.843 69.2842 126.976 69.6192 124.908 69.6192Z" fill="white"/>
<path d="M142.648 69.9542C137.646 69.8202 135.178 67.341 135.312 62.3825L135.512 53.2697L132.844 53.2027L132.978 46.9042L135.645 46.9712L135.779 41.2757L143.581 41.4097L143.448 47.1052L148.65 47.2392L148.516 53.5378L143.314 53.4037L143.181 60.9754C143.181 62.4495 143.848 63.2536 145.248 63.2536C146.182 63.2536 147.182 63.0526 148.249 62.5836L148.116 68.7481C146.515 69.6192 144.715 70.0212 142.648 69.9542Z" fill="white"/>
<path d="M161.921 70.4232C158.386 70.3562 155.585 69.2171 153.385 67.0059C151.184 64.7947 150.184 61.9805 150.25 58.4292C150.317 55.1459 151.451 52.3986 153.585 50.1874C155.719 47.9762 158.453 46.9042 161.721 46.9712C165.389 47.0382 168.123 48.2443 169.99 50.5895C171.857 52.9347 172.791 55.8829 172.658 59.4343C172.658 60.1713 172.591 60.7074 172.591 61.0424L157.719 60.7074C158.32 63.1866 159.853 64.4597 162.454 64.4597C164.188 64.5267 165.855 63.7896 167.456 62.3155L171.724 66.0008C169.257 69.0831 165.989 70.5572 161.921 70.4232ZM157.653 56.821L165.389 56.955C165.255 55.6819 164.855 54.7438 164.188 53.9398C163.521 53.2027 162.654 52.8007 161.587 52.8007C160.587 52.8007 159.72 53.1357 159.053 53.8728C158.386 54.6098 157.919 55.5479 157.653 56.821Z" fill="white"/>
<path d="M175.792 70.2222L176.259 47.8422L184.061 47.9763L183.995 52.4657C185.462 49.1154 187.863 47.5072 191.13 47.7082L190.93 55.95H190.263C185.995 55.883 183.861 58.2952 183.728 63.3206L183.595 70.2892L175.792 70.2222Z" fill="white"/>
</svg>
