<svg width="17" height="14" viewBox="0 0 17 14" fill="none" xmlns="http://www.w3.org/2000/svg">
<path d="M16.7375 0.383285C16.5298 0.136094 16.2188 0 15.8616 0C15.6675 0 15.4618 0.0397677 15.2503 0.118419L0.860193 5.46535C0.096523 5.74902 -0.00632858 6.17473 0.00028608 6.40323C0.00690074 6.63174 0.134395 7.05113 0.91337 7.29239C0.918039 7.29378 0.922708 7.29516 0.927377 7.29643L3.91228 8.12789L5.52652 12.621C5.74662 13.2336 6.24064 13.6141 6.81599 13.6141C7.17876 13.6141 7.53556 13.4661 7.84788 13.1863L9.69415 11.5316L12.3721 13.6305C12.3723 13.6307 12.3727 13.6309 12.373 13.6311L12.3984 13.6511C12.4007 13.6528 12.4032 13.6547 12.4055 13.6565C12.7032 13.8812 13.0281 13.9999 13.3454 14H13.3456C13.9657 14 14.4594 13.5532 14.6033 12.8619L16.9611 1.52948C17.0558 1.07461 16.9764 0.667592 16.7375 0.383285ZM4.91084 7.96995L10.6696 5.1063L7.08382 8.81505C7.02507 8.87577 6.98343 8.95013 6.96294 9.03106L6.27151 11.7572L4.91084 7.96995ZM7.17305 12.473C7.14919 12.4944 7.12519 12.5134 7.1012 12.531L7.74269 10.002L8.9096 10.9167L7.17305 12.473ZM15.9848 1.33695L13.627 12.6695C13.6043 12.7779 13.5318 13.0303 13.3454 13.0303C13.2534 13.0303 13.1377 12.9814 13.0193 12.8927L9.98481 10.5145C9.98442 10.5141 9.9839 10.5137 9.98338 10.5134L8.17783 9.09822L13.3633 3.73488C13.5294 3.56319 13.5444 3.30021 13.399 3.1116C13.2535 2.92299 12.9898 2.86365 12.7741 2.97096L4.24535 7.21209L1.21985 6.36952L15.6056 1.02424C15.7271 0.979043 15.8119 0.969575 15.8616 0.969575C15.8921 0.969575 15.9463 0.973109 15.9664 0.997223C15.9929 1.02866 16.0266 1.13584 15.9848 1.33695Z" fill="white"/>
</svg>
