<svg width="10" height="17" viewBox="0 0 10 17" fill="none" xmlns="http://www.w3.org/2000/svg">
<path d="M6.17684 17H3.35538C2.8841 17 2.50074 16.6301 2.50074 16.1754V10.0349H0.854639C0.383364 10.0349 0 9.66483 0 9.21024V6.57902C0 6.12429 0.383364 5.75439 0.854639 5.75439H2.50074V4.43677C2.50074 3.1303 2.92591 2.01878 3.73014 1.22255C4.538 0.422691 5.66699 0 6.99505 0L9.14684 0.00337218C9.61731 0.00415039 10 0.374054 10 0.828003V3.27103C10 3.72575 9.61677 4.09566 9.14563 4.09566L7.69686 4.09618C7.25502 4.09618 7.14251 4.18165 7.11845 4.20785C7.0788 4.2513 7.03162 4.37412 7.03162 4.71329V5.75426H9.03675C9.1877 5.75426 9.33395 5.79018 9.45963 5.85789C9.73076 6.00406 9.89932 6.28045 9.89932 6.57915L9.89824 9.21037C9.89824 9.66483 9.51488 10.0347 9.04361 10.0347H7.03162V16.1754C7.03162 16.6301 6.64812 17 6.17684 17ZM3.53362 16.0034H5.9986V9.5887C5.9986 9.28507 6.25467 9.03813 6.56921 9.03813H8.86537L8.86631 6.751H6.56908C6.25454 6.751 5.9986 6.50405 5.9986 6.20042V4.71329C5.9986 4.32393 6.0396 3.88113 6.34419 3.54833C6.71223 3.146 7.29225 3.09956 7.69659 3.09956L8.96712 3.09905V0.999725L6.99425 0.996613C4.85994 0.996613 3.53362 2.31488 3.53362 4.43677V6.20042C3.53362 6.50392 3.27768 6.751 2.96314 6.751H1.03288V9.03813H2.96314C3.27768 9.03813 3.53362 9.28507 3.53362 9.5887V16.0034ZM9.14482 0.999985H9.14496H9.14482Z" fill="white"/>
</svg>
