<svg width="17" height="17" viewBox="0 0 17 17" fill="none" xmlns="http://www.w3.org/2000/svg">
<path d="M12.3982 0H4.60174C2.0643 0 0 2.0643 0 4.60174V12.3984C0 14.9357 2.0643 17 4.60174 17H12.3984C14.9357 17 17 14.9357 17 12.3984V4.60174C17 2.0643 14.9357 0 12.3982 0V0ZM16.0034 12.3984C16.0034 14.3861 14.3861 16.0034 12.3982 16.0034H4.60174C2.61383 16.0034 0.996611 14.3861 0.996611 12.3984V4.60174C0.996611 2.61383 2.61383 0.996611 4.60174 0.996611H12.3984C14.3861 0.996611 16.0034 2.61383 16.0034 4.60174V12.3984Z" fill="white"/>
<path d="M8.49986 3.85168C5.93674 3.85168 3.85156 5.93686 3.85156 8.49998C3.85156 11.0631 5.93674 13.1483 8.49986 13.1483C11.063 13.1483 13.1482 11.0631 13.1482 8.49998C13.1482 5.93686 11.063 3.85168 8.49986 3.85168ZM8.49986 12.1517C6.48641 12.1517 4.84817 10.5136 4.84817 8.49998C4.84817 6.48653 6.48641 4.8483 8.49986 4.8483C10.5134 4.8483 12.1515 6.48653 12.1515 8.49998C12.1515 10.5136 10.5134 12.1517 8.49986 12.1517Z" fill="white"/>
<path d="M13.2593 2.20087C12.5018 2.20087 11.8857 2.81707 11.8857 3.57438C11.8857 4.33183 12.5018 4.94803 13.2593 4.94803C14.0167 4.94803 14.6329 4.33183 14.6329 3.57438C14.6329 2.81694 14.0167 2.20087 13.2593 2.20087ZM13.2593 3.95129C13.0515 3.95129 12.8824 3.78216 12.8824 3.57438C12.8824 3.36648 13.0515 3.19748 13.2593 3.19748C13.4672 3.19748 13.6363 3.36648 13.6363 3.57438C13.6363 3.78216 13.4672 3.95129 13.2593 3.95129Z" fill="white"/>
</svg>
