<svg width="20" height="14" viewBox="0 0 20 14" fill="none" xmlns="http://www.w3.org/2000/svg">
<path d="M13.0784 6.17306L8.6599 3.93872C8.40585 3.81025 8.10556 3.81504 7.85653 3.95141C7.60736 4.08792 7.45874 4.32906 7.45874 4.59672V9.02704C7.45874 9.29343 7.60644 9.53415 7.85394 9.6708C7.98318 9.74216 8.12646 9.77798 8.27004 9.77798C8.40157 9.77798 8.53341 9.74794 8.65471 9.68758L13.0733 7.49174C13.3356 7.3613 13.4993 7.10929 13.5006 6.83388C13.5016 6.55847 13.3399 6.30533 13.0784 6.17306ZM8.63076 8.46972V5.15855L11.933 6.82852L8.63076 8.46972Z" fill="white"/>
<path d="M19.8528 3.30426L19.8518 3.2958C19.8349 3.14702 19.6663 1.82368 18.9702 1.15059C18.1656 0.358898 17.2534 0.262722 16.8148 0.216608C16.7784 0.212801 16.7452 0.209275 16.7154 0.205609L16.6805 0.202224C14.0365 0.0245377 10.0434 0.000282042 10.0034 0.000141021L9.99992 0L9.99641 0.000141021C9.95644 0.000282042 5.96339 0.0245377 3.29557 0.202224L3.26032 0.205609C3.23194 0.209134 3.20066 0.212378 3.16663 0.216044C2.73298 0.262299 1.83058 0.358616 1.0237 1.17894C0.360715 1.84484 0.169066 3.13983 0.149382 3.28537L0.147094 3.30426C0.141143 3.36617 0 4.83998 0 6.31957V7.70271C0 9.1823 0.141143 10.6561 0.147094 10.7182L0.148162 10.7275C0.165099 10.8738 0.333555 12.1729 1.02645 12.8463C1.78298 13.6115 2.73954 13.7127 3.25406 13.7672C3.33539 13.7758 3.40543 13.7831 3.45319 13.7909L3.49942 13.7968C5.02605 13.931 9.81255 13.9972 10.0155 13.9999L10.0216 14L10.0277 13.9999C10.0677 13.9997 14.0606 13.9755 16.7046 13.7978L16.7395 13.7944C16.7729 13.7903 16.8105 13.7866 16.8517 13.7827C17.2829 13.7404 18.1804 13.6525 18.9761 12.8433C19.6391 12.1773 19.8309 10.8823 19.8505 10.7369L19.8528 10.718C19.8587 10.656 20 9.1823 20 7.70271V6.31957C19.9998 4.83998 19.8587 3.36631 19.8528 3.30426ZM18.8278 7.70271C18.8278 9.07216 18.6984 10.4825 18.6862 10.612C18.6365 10.9686 18.4343 11.7879 18.1113 12.1124C17.6132 12.6188 17.1016 12.669 16.7281 12.7056C16.6829 12.7099 16.6411 12.7142 16.6033 12.7185C14.0459 12.8895 10.2036 12.9157 10.0266 12.9167C9.82811 12.914 5.11166 12.8473 3.63156 12.7202C3.55573 12.7088 3.47379 12.7001 3.38743 12.691C2.94935 12.6446 2.34968 12.5812 1.88857 12.1124L1.87773 12.1017C1.56035 11.7961 1.36397 11.03 1.31408 10.6162C1.30477 10.5183 1.17202 9.09134 1.17202 7.70271V6.31957C1.17202 4.95167 1.30111 3.54287 1.31362 3.41073C1.37298 2.99063 1.57897 2.22094 1.88857 1.90985C2.40187 1.38807 2.94309 1.33025 3.30106 1.29203C3.33524 1.28837 3.36713 1.28498 3.39658 1.28146C5.99117 1.10969 9.86107 1.08417 9.99992 1.08318C10.1388 1.08403 14.0073 1.10969 16.5789 1.28146C16.6104 1.28512 16.6449 1.28879 16.682 1.29274C17.0502 1.33152 17.6067 1.39018 18.1174 1.89363L18.1221 1.89828C18.4395 2.20388 18.6359 2.98344 18.6858 3.40552C18.6946 3.49788 18.8278 4.92798 18.8278 6.31957V7.70271Z" fill="white"/>
</svg>
