<svg width="35" height="35" viewBox="0 0 35 35" fill="none" xmlns="http://www.w3.org/2000/svg">
<path d="M6.5625 28.3062V25.5391C6.5625 25.5391 9.32422 25.4023 9.32422 22.7719V14.0219C9.32422 14.0219 9.29688 6.76484 17.1336 6.76484C24.0625 6.76484 25.7031 10.8008 25.7031 13.7594V23.2641C25.7031 23.2641 25.5008 25.5609 28.4375 25.5609V28.2953L6.5625 28.3062Z" stroke="white" stroke-width="1.5"/>
<path d="M19.6381 6.97266V6.21797C19.6381 5.65086 19.4129 5.10698 19.0118 4.70598C18.6108 4.30497 18.067 4.07969 17.4999 4.07969C16.9327 4.07969 16.3889 4.30497 15.9879 4.70598C15.5869 5.10698 15.3616 5.65086 15.3616 6.21797V6.90703" stroke="white" stroke-width="1.5"/>
<path d="M19.6876 28.3062C19.6876 28.9995 19.4122 29.6644 18.922 30.1547C18.4317 30.6449 17.7668 30.9203 17.0735 30.9203C16.3802 30.9203 15.7153 30.6449 15.2251 30.1547C14.7349 29.6644 14.4595 28.9995 14.4595 28.3062" stroke="white" stroke-width="1.5"/>
</svg>
