<svg width="35" height="35" viewBox="0 0 35 35" fill="none" xmlns="http://www.w3.org/2000/svg">
<path d="M17.4999 31.5766C25.2742 31.5766 31.5765 25.2743 31.5765 17.5C31.5765 9.72572 25.2742 3.42343 17.4999 3.42343C9.72563 3.42343 3.42334 9.72572 3.42334 17.5C3.42334 25.2743 9.72563 31.5766 17.4999 31.5766Z" stroke="white" stroke-width="1.5" stroke-linecap="round"/>
<path d="M23.7235 21.1258C23.0753 22.2141 22.1587 23.1179 21.0614 23.7508C19.9642 24.3836 18.7229 24.7245 17.4563 24.7406C16.2182 24.7268 15.0035 24.402 13.9237 23.7962C12.8439 23.1904 11.9336 22.3229 11.2766 21.2734" stroke="white" stroke-width="1.5" stroke-linecap="round"/>
<path d="M22.5556 15.1136C23.4147 15.1136 24.1111 14.4014 24.1111 13.5227C24.1111 12.6441 23.4147 11.9318 22.5556 11.9318C21.6964 11.9318 21 12.6441 21 13.5227C21 14.4014 21.6964 15.1136 22.5556 15.1136Z" fill="white"/>
<path d="M12.4445 15.1136C13.3036 15.1136 14 14.4014 14 13.5227C14 12.6441 13.3036 11.9318 12.4445 11.9318C11.5854 11.9318 10.8889 12.6441 10.8889 13.5227C10.8889 14.4014 11.5854 15.1136 12.4445 15.1136Z" fill="white"/>
</svg>
