<svg width="35" height="35" viewBox="0 0 35 35" fill="none" xmlns="http://www.w3.org/2000/svg">
<path d="M26.116 5.01726L24.1211 6.46287C24.0184 6.53881 23.8974 6.58617 23.7704 6.60014C23.6434 6.61411 23.515 6.59418 23.3983 6.54238L20.8034 5.47263C20.6892 5.42627 20.5887 5.35146 20.5115 5.25531C20.4343 5.15916 20.383 5.04487 20.3625 4.9233L19.8854 2.19833C19.8577 2.02729 19.7695 1.8719 19.6368 1.76046C19.5042 1.64902 19.3359 1.58894 19.1626 1.59117H15.6498C15.4837 1.58673 15.3211 1.63965 15.1895 1.74102C15.0579 1.84239 14.9651 1.98602 14.927 2.14773L14.2548 4.83656C14.2288 4.93794 14.181 5.03246 14.1149 5.11358C14.0487 5.1947 13.9658 5.26048 13.8717 5.30639L11.4864 6.50624C11.3715 6.56112 11.2442 6.58468 11.1173 6.57452C10.9903 6.56437 10.8683 6.52087 10.7636 6.44842L8.59522 4.90884C8.45359 4.80634 8.27961 4.75865 8.10552 4.7746C7.93142 4.79055 7.769 4.86906 7.64835 4.99558L5.01011 7.69887C4.89172 7.81649 4.81767 7.97146 4.80054 8.13746C4.78342 8.30347 4.82426 8.47029 4.91615 8.6096L6.26779 10.6913C6.32902 10.7855 6.36743 10.8927 6.37997 11.0044C6.39252 11.1161 6.37886 11.2291 6.34007 11.3346L5.40043 13.9294C5.36134 14.0394 5.29621 14.1382 5.21062 14.2175C5.12503 14.2968 5.02151 14.3542 4.90892 14.3848L2.12612 15.151C1.96843 15.1933 1.82973 15.2878 1.7326 15.4191C1.63548 15.5503 1.58565 15.7106 1.59124 15.8738V19.2999C1.58783 19.469 1.64383 19.6339 1.74949 19.766C1.85514 19.8981 2.00377 19.9889 2.16949 20.0227L4.98843 20.6009C5.10178 20.623 5.20818 20.672 5.29873 20.7437C5.38927 20.8153 5.46132 20.9077 5.50885 21.0129L6.53523 23.2898C6.58296 23.3954 6.6046 23.5109 6.59831 23.6267C6.59202 23.7424 6.55799 23.8549 6.49909 23.9547L4.95951 26.5785C4.87496 26.7196 4.84106 26.8853 4.8634 27.0483C4.88574 27.2112 4.96299 27.3617 5.08239 27.4748L7.55438 29.8312C7.67694 29.9506 7.83792 30.0228 8.00866 30.0347C8.17941 30.0466 8.34884 29.9975 8.4868 29.8962L10.5685 28.3855C10.6719 28.3108 10.7932 28.2647 10.9201 28.252C11.0471 28.2393 11.1751 28.2604 11.2913 28.3133L13.9946 29.5203C14.1052 29.568 14.2022 29.6426 14.2766 29.7372C14.3511 29.8319 14.4007 29.9437 14.421 30.0624L14.8981 32.8019C14.9258 32.9729 15.014 33.1283 15.1467 33.2397C15.2793 33.3512 15.4476 33.4113 15.6209 33.409H19.1554C19.3308 33.4108 19.5008 33.3487 19.6338 33.2343C19.7668 33.1199 19.8537 32.9611 19.8782 32.7874L20.2974 29.8962C20.3147 29.7756 20.3623 29.6614 20.4356 29.5641C20.5088 29.4668 20.6055 29.3896 20.7167 29.3396L23.3043 28.1687C23.4198 28.1149 23.5475 28.0925 23.6745 28.1039C23.8014 28.1154 23.9231 28.1601 24.0271 28.2338L26.2967 29.7661C26.4402 29.8639 26.6142 29.9068 26.7867 29.8869C26.9593 29.867 27.1189 29.7856 27.2364 29.6577L29.73 26.9833C29.8458 26.8617 29.9157 26.7035 29.9275 26.536C29.9394 26.3685 29.8926 26.2021 29.7951 26.0653L28.2917 23.8969C28.218 23.7929 28.1733 23.6712 28.1618 23.5443C28.1504 23.4173 28.1728 23.2896 28.2266 23.1741L29.2964 20.6949C29.3413 20.5878 29.4115 20.4931 29.5008 20.4189C29.5901 20.3447 29.696 20.2931 29.8095 20.2684L32.455 19.7119C32.6207 19.6781 32.7694 19.5873 32.875 19.4552C32.9807 19.3231 33.0367 19.1582 33.0333 18.9891V15.6786C33.0367 15.5095 32.9807 15.3446 32.875 15.2125C32.7694 15.0805 32.6207 14.9896 32.455 14.9558L29.7662 14.392C29.6478 14.3675 29.5374 14.3135 29.4452 14.2352C29.353 14.157 29.282 14.0568 29.2385 13.9439L28.1905 11.3057C28.1466 11.1947 28.1309 11.0745 28.1447 10.9559C28.1586 10.8374 28.2016 10.7241 28.27 10.6262L29.824 8.35662C29.9216 8.21537 29.9658 8.04397 29.9486 7.87312C29.9314 7.70227 29.8539 7.54313 29.73 7.4242L27.0484 5.07509C26.925 4.95668 26.7635 4.88589 26.5928 4.8753C26.4221 4.86471 26.2531 4.91501 26.116 5.01726Z" stroke="white" stroke-width="1.5"/>
<path d="M17.3121 24.6847C21.2801 24.6847 24.4968 21.4681 24.4968 17.5001C24.4968 13.5321 21.2801 10.3154 17.3121 10.3154C13.3441 10.3154 10.1274 13.5321 10.1274 17.5001C10.1274 21.4681 13.3441 24.6847 17.3121 24.6847Z" stroke="white" stroke-width="1.5"/>
</svg>
