<svg width="35" height="35" viewBox="0 0 35 35" fill="none" xmlns="http://www.w3.org/2000/svg">
<path d="M27.7212 17.5H30.8001" stroke="white" stroke-width="1.5"/>
<path d="M4.19995 17.5H21.1585" stroke="white" stroke-width="1.5"/>
<path d="M14.5142 8.7336H30.8001" stroke="white" stroke-width="1.5"/>
<path d="M4.19995 8.7336H7.96245" stroke="white" stroke-width="1.5"/>
<path d="M19.1406 26.2664H30.8" stroke="white" stroke-width="1.5"/>
<path d="M4.19995 26.2664H12.5781" stroke="white" stroke-width="1.5"/>
<path d="M11.2383 11.8453C13.0505 11.8453 14.5195 10.3763 14.5195 8.56407C14.5195 6.75189 13.0505 5.28282 11.2383 5.28282C9.4261 5.28282 7.95703 6.75189 7.95703 8.56407C7.95703 10.3763 9.4261 11.8453 11.2383 11.8453Z" stroke="white" stroke-width="1.5"/>
<path d="M24.4399 20.7813C26.2521 20.7813 27.7212 19.3122 27.7212 17.5C27.7212 15.6878 26.2521 14.2188 24.4399 14.2188C22.6278 14.2188 21.1587 15.6878 21.1587 17.5C21.1587 19.3122 22.6278 20.7813 24.4399 20.7813Z" stroke="white" stroke-width="1.5"/>
<path d="M15.8594 29.5476C17.6716 29.5476 19.1406 28.0786 19.1406 26.2664C19.1406 24.4542 17.6716 22.9851 15.8594 22.9851C14.0472 22.9851 12.5781 24.4542 12.5781 26.2664C12.5781 28.0786 14.0472 29.5476 15.8594 29.5476Z" stroke="white" stroke-width="1.5"/>
</svg>
